<svg id="Layer_1" data-name="Layer 1" xmlns="http://www.w3.org/2000/svg" viewBox="0 0 175.08 62.37"><defs><style>.cls-1{fill:#1e7dbc;}</style></defs><title>iSlide_bleu</title><path class="cls-1" d="M52.18,53.76a1.69,1.69,0,0,0-1.21.45,1.65,1.65,0,0,0-.48,1.25v4.68A15.6,15.6,0,0,1,52.15,29a1.5,1.5,0,0,0,0-3,18.6,18.6,0,0,0-1.66,37.13V76.72a1.74,1.74,0,0,0,2.94,1.22,1.7,1.7,0,0,0,.45-1.22V55.46a1.56,1.56,0,0,0-1.7-1.7Z" transform="translate(-25.84 -16.62)"/><path class="cls-1" d="M52.18,42a2.76,2.76,0,0,0-1.86.67,2.42,2.42,0,0,0-.8,1.93,2.63,2.63,0,0,0,.74,1.89,2.48,2.48,0,0,0,1.87.77,2.63,2.63,0,0,0,2.66-2.66A2.46,2.46,0,0,0,54,42.67,2.68,2.68,0,0,0,52.18,42Z" transform="translate(-25.84 -16.62)"/><path class="cls-1" d="M82.16,53.48c-3.62-.61-6.29-1.62-8-3.06a6.64,6.64,0,0,1-2.6-5.32,7.19,7.19,0,0,1,2.63-5.91q2.63-2.11,7.33-2.12A11,11,0,0,1,91.16,42a1.78,1.78,0,0,0,1.58.85,1.52,1.52,0,0,0,.68-.11,1.89,1.89,0,0,0,.71-.59,1.42,1.42,0,0,0,.25-.83,1.79,1.79,0,0,0-.22-.9,13.61,13.61,0,0,0-5.1-4.75,14.93,14.93,0,0,0-7.57-2,16.67,16.67,0,0,0-7,1.38A11,11,0,0,0,69.8,39a10.27,10.27,0,0,0-1.66,5.8,10,10,0,0,0,3.59,7.77,18.4,18.4,0,0,0,9.87,4.1c3.58.49,6.29,1.58,8.11,3.26a8.25,8.25,0,0,1,2.75,6.36,8.63,8.63,0,0,1-2.8,6.9A11.31,11.31,0,0,1,82,75.59,15.66,15.66,0,0,1,74.73,74a10.47,10.47,0,0,1-4.56-4.39,1.71,1.71,0,0,0-1.64-1.07,1.78,1.78,0,0,0-1.27.45,1.49,1.49,0,0,0-.48,1.13,1.4,1.4,0,0,0,.17.68,14,14,0,0,0,5.82,6A18.68,18.68,0,0,0,82,79a16.37,16.37,0,0,0,7.27-1.53,11.27,11.27,0,0,0,4.87-4.41,13,13,0,0,0,1.72-6.79,11.18,11.18,0,0,0-3.28-8.4C90.38,55.73,86.92,54.27,82.16,53.48Z" transform="translate(-25.84 -16.62)"/><path class="cls-1" d="M115.28,75h-5.44A3.3,3.3,0,0,1,107,73.36a7.57,7.57,0,0,1-1.11-4.27V19.16a1.56,1.56,0,0,0-1.69-1.69,1.72,1.72,0,0,0-1.22.45,1.63,1.63,0,0,0-.48,1.24V69.09a10.53,10.53,0,0,0,2.06,6.73,6.47,6.47,0,0,0,5.29,2.6H115a1.63,1.63,0,0,0,1.24-.48,1.7,1.7,0,0,0,.45-1.22,1.84,1.84,0,0,0-.39-1.24A1.31,1.31,0,0,0,115.28,75Z" transform="translate(-25.84 -16.62)"/><path class="cls-1" d="M123.72,53.83a1.72,1.72,0,0,0-1.22.45,1.61,1.61,0,0,0-.48,1.24v21.2a1.64,1.64,0,0,0,1.7,1.7,1.61,1.61,0,0,0,1.24-.48,1.67,1.67,0,0,0,.46-1.22V55.52a1.64,1.64,0,0,0-.46-1.24A1.67,1.67,0,0,0,123.72,53.83Z" transform="translate(-25.84 -16.62)"/><path class="cls-1" d="M123.72,42a2.79,2.79,0,0,0-1.87.67,2.41,2.41,0,0,0-.79,1.93,2.63,2.63,0,0,0,.74,1.89,2.47,2.47,0,0,0,1.86.77,2.61,2.61,0,0,0,2.66-2.66,2.46,2.46,0,0,0-.76-1.93A2.68,2.68,0,0,0,123.72,42Z" transform="translate(-25.84 -16.62)"/><path class="cls-1" d="M199.12,54.55a13.47,13.47,0,0,0-5.07-5.4,14,14,0,0,0-7.38-1.95,14.25,14.25,0,0,0-7.55,2,13.74,13.74,0,0,0-5.15,5.6,16.81,16.81,0,0,0-1.74,6.25h-8.58V18.31a1.74,1.74,0,0,0-2.91-1.24,1.63,1.63,0,0,0-.48,1.24V53.59a13.18,13.18,0,0,0-5.12-4.72,15.27,15.27,0,0,0-7.27-1.73,16,16,0,0,0-8.09,2.07,14.9,14.9,0,0,0-5.68,5.68,16.73,16.73,0,0,0,0,16.12,14.93,14.93,0,0,0,5.68,5.69,16.82,16.82,0,0,0,16,0,14.89,14.89,0,0,0,5.68-5.57A15.57,15.57,0,0,0,163.62,64h8.54a16.34,16.34,0,0,0,2,7.1,14.32,14.32,0,0,0,5.45,5.6,15.6,15.6,0,0,0,8,2,16,16,0,0,0,5.57-1.07,14.29,14.29,0,0,0,4.73-2.72,1.41,1.41,0,0,0-.12-2.26,1.52,1.52,0,0,0-1-.34,1.82,1.82,0,0,0-1.19.46,9.51,9.51,0,0,1-3.54,2,13.65,13.65,0,0,1-4.44.77,12.05,12.05,0,0,1-5.94-1.47,11.27,11.27,0,0,1-4.24-4.1,12.58,12.58,0,0,1-1.75-6h23.7a1.62,1.62,0,0,0,1.18-.43,1.49,1.49,0,0,0,.46-1.16A16.74,16.74,0,0,0,199.12,54.55ZM158.65,69.37a12,12,0,0,1-4.44,4.55,12.85,12.85,0,0,1-12.67,0,12,12,0,0,1-2.83-2.31l-2-3a12.94,12.94,0,0,1-1.27-5.69,12.79,12.79,0,0,1,1.64-6.45A11.9,11.9,0,0,1,141.54,52a13.06,13.06,0,0,1,12.67,0,11.83,11.83,0,0,1,4.44,4.52A12.73,12.73,0,0,1,160.12,61H140.76l7.53,7.52a1.45,1.45,0,0,0,1.06.44,1.48,1.48,0,0,0,1.06-.44,1.51,1.51,0,0,0,0-2.12L148,64h12.2A12.81,12.81,0,0,1,158.65,69.37Zm19.84-8.31h-2.85a12.45,12.45,0,0,1,3.6-7.75,10.24,10.24,0,0,1,7.43-2.94,10.38,10.38,0,0,1,7.58,2.94,11.82,11.82,0,0,1,3.4,7.75Z" transform="translate(-25.84 -16.62)"/><path class="cls-1" d="M52.15,33.62a11,11,0,0,0-8.09,18.45,1.5,1.5,0,1,0,2.2-2,8,8,0,1,1,11.77,0,1.5,1.5,0,0,0,2.2,2,11,11,0,0,0-8.08-18.48Z" transform="translate(-25.84 -16.62)"/><path class="cls-1" d="M52.15,21.31a1.5,1.5,0,0,0,0-3A26.35,26.35,0,0,0,25.84,44.63a1.5,1.5,0,0,0,3,0A23.34,23.34,0,0,1,52.15,21.31Z" transform="translate(-25.84 -16.62)"/></svg>